# xmcd
#
# Track frame offsets: 
#        150
#        16583
#        34509
#        51935
#        75483
#        90046
#        106440
#        120767
#        141058
#        164687
#
# Disc length: 2421 seconds
#
# Revision: 0
# Processed by: cddbd v1.5.2PL0 Copyright (c) Steve Scherf et al.
# Submitted via: ExactAudioCopy v0.99pb5
#
DISCID=6509730a
DTITLE=Todd Elliot - Todd Elliot
DYEAR=2007
DGENRE=Country
TTITLE0=Better Than Goodbye
TTITLE1=Supped Up Car
TTITLE2=What I Live For
TTITLE3=I Should Care
TTITLE4=Diamonds In The Rain
TTITLE5=I'm Gonna Live
TTITLE6=Man Behind The Wheel
TTITLE7=The Vow
TTITLE8=Stay Close To Me
TTITLE9=Orange Blossom Special
EXTD=
EXTT0=
EXTT1=
EXTT2=
EXTT3=
EXTT4=
EXTT5=
EXTT6=
EXTT7=
EXTT8=
EXTT9=
PLAYORDER=
